<svg width="32" height="32" viewBox="0 0 32 32" fill="none" xmlns="http://www.w3.org/2000/svg">
  <rect width="32" height="32" fill="#0D1117"/>
  <rect x="1" y="1" width="30" height="30" fill="#161B22" stroke="#00FF41" stroke-width="1"/>
  <path d="M22 10C22 8.89543 21.1046 8 20 8H12C10.8954 8 10 8.89543 10 10V12C10 13.1046 10.8954 14 12 14H20C21.1046 14 22 14.8954 22 16V18C22 19.1046 21.1046 20 20 20H12C10.8954 20 10 20.8954 10 18V18" stroke="#00FF41" stroke-width="2" stroke-linecap="round"/>
  <rect x="26" y="4" width="2" height="2" fill="#00FF41" opacity="0.7"/>
  <rect x="4" y="26" width="2" height="2" fill="#00FF41" opacity="0.5"/>
  <rect x="26" y="26" width="2" height="2" fill="#FF6B35" opacity="0.6"/>
</svg>
